<?xml version="1.0" encoding="UTF-8" standalone="no"?>
<svg width="58px" height="24px" viewBox="0 0 58 24" version="1.1" xmlns="http://www.w3.org/2000/svg" xmlns:xlink="http://www.w3.org/1999/xlink">
    <!-- Generator: Sketch 3.6.1 (26313) - http://www.bohemiancoding.com/sketch -->
    <title>Group</title>
    <desc>Created with Sketch.</desc>
    <defs></defs>
    <g id="Page-1" stroke="none" stroke-width="1" fill="none" fill-rule="evenodd">
        <g id="Desktop-HD" transform="translate(-1057.000000, -128.000000)" fill="#505050">
            <g id="Group" transform="translate(1057.000000, 128.000000)">
                <path d="M6.22818792,7.84935597 L8.25234899,12.8870023 L11.5221477,14.4100117 L4.90469799,18.2370609 L4.90469799,1.7573185 L0.272483221,0.117154567 L0.272483221,20.8925644 L4.94362416,23.5090164 L16.5825503,16.7921546 L16.5825503,11.4811475 L6.22818792,7.84935597 Z" id="Shape"></path>
                <path d="M23.5503356,18.9009368 L23.5503356,4.88144028 L27.5208054,4.88144028 C28.7275168,4.88144028 29.7006711,5.19385246 30.4013423,5.77962529 C31.1020134,6.36539813 31.452349,7.14642857 31.452349,8.08366511 C31.452349,8.86469555 31.2187919,9.56762295 30.790604,10.1533958 C30.3624161,10.7391686 29.7785235,11.1687354 29,11.4030445 L29,11.442096 C29.9342282,11.5592506 30.7127517,11.9107143 31.2577181,12.4964871 C31.8416107,13.08226 32.114094,13.9023419 32.114094,14.8395785 C32.114094,16.0501756 31.685906,17.0264637 30.8295302,17.7684426 C29.9731544,18.5104215 28.8832215,18.9009368 27.5986577,18.9009368 L23.5503356,18.9009368 L23.5503356,18.9009368 Z M25.1852349,6.3263466 L25.1852349,10.8563232 L26.8590604,10.8563232 C27.7543624,10.8563232 28.4550336,10.6220141 28.9610738,10.1924473 C29.4671141,9.76288056 29.7395973,9.13805621 29.7395973,8.35702576 C29.7395973,6.99022248 28.8442953,6.3263466 27.0536913,6.3263466 L25.1852349,6.3263466 L25.1852349,6.3263466 Z M25.1852349,12.340281 L25.1852349,17.3779274 L27.4040268,17.3779274 C28.3771812,17.3779274 29.1167785,17.1436183 29.661745,16.675 C30.2067114,16.2063817 30.4402685,15.5815574 30.4402685,14.8005269 C30.4402685,13.160363 29.3114094,12.3012295 27.0536913,12.3012295 L25.1852349,12.3012295 L25.1852349,12.340281 Z" id="Shape"></path>
                <path d="M36.1624161,5.58436768 C36.1624161,5.89677986 36.0456376,6.13108899 35.8510067,6.3263466 C35.6563758,6.52160422 35.3838926,6.63875878 35.1114094,6.63875878 C34.8389262,6.63875878 34.566443,6.56065574 34.3718121,6.36539813 C34.1771812,6.17014052 34.0604027,5.93583138 34.0604027,5.6234192 C34.0604027,5.35005855 34.1771812,5.11574941 34.3718121,4.88144028 C34.566443,4.68618267 34.8,4.5690281 35.1114094,4.5690281 C35.4228188,4.5690281 35.6563758,4.68618267 35.8510067,4.88144028 C36.0456376,5.03764637 36.1624161,5.31100703 36.1624161,5.58436768" id="Shape"></path>
                <rect id="Rectangle-path" x="34.2939597" y="8.94279859" width="1.59597315" height="9.95813817"></rect>
                <path d="M46.633557,18.9009368 L45.0375839,18.9009368 L45.0375839,13.238466 C45.0375839,11.1296838 44.2590604,10.0752927 42.7409396,10.0752927 C41.9624161,10.0752927 41.3006711,10.3877049 40.7946309,10.9734778 C40.2496644,11.5592506 40.0161074,12.340281 40.0161074,13.238466 L40.0161074,18.9009368 L38.4201342,18.9009368 L38.4201342,8.94279859 L40.0161074,8.94279859 L40.0161074,10.5829625 L40.0550336,10.5829625 C40.7946309,9.33331382 41.8845638,8.66943794 43.3248322,8.66943794 C44.4147651,8.66943794 45.2322148,9.02090164 45.8161074,9.72382904 C46.4,10.4267564 46.6724832,11.442096 46.6724832,12.7698478 L46.6724832,18.9009368 L46.633557,18.9009368 Z" id="Shape"></path>
                <path d="M57.8832215,18.0808548 C57.8832215,21.7126464 56.1315436,23.5480679 52.6671141,23.5480679 C51.4604027,23.5480679 50.3704698,23.3137588 49.4362416,22.8451405 L49.8644295,21.4783372 C50.8375839,21.986007 51.6161074,22.1812646 52.6281879,22.1812646 C55.0805369,22.1812646 56.2872483,20.8925644 56.2872483,18.2761124 L56.2872483,17.1826698 L56.2483221,17.1826698 C55.5087248,18.47137 54.3409396,19.0961944 52.8228188,19.0961944 C52.0053691,19.0961944 51.304698,18.9009368 50.6818792,18.5104215 C50.0590604,18.1199063 49.5530201,17.5341335 49.2416107,16.7921546 C48.8912752,16.0501756 48.7355705,15.1910422 48.7355705,14.2147541 C48.7355705,12.5355386 49.1637584,11.1687354 49.9812081,10.1533958 C50.7986577,9.13805621 51.8885906,8.66943794 53.2899329,8.66943794 C54.6134228,8.66943794 55.6255034,9.21615925 56.2483221,10.2705504 L56.2872483,10.2705504 L56.2872483,8.90374707 L57.8832215,8.90374707 L57.8832215,18.0808548 L57.8832215,18.0808548 Z M56.2872483,14.3709602 L56.2872483,12.8870023 C56.2872483,12.0669204 56.0147651,11.4030445 55.4697987,10.8563232 C54.9248322,10.3096019 54.2630872,10.0362412 53.4845638,10.0362412 C52.5114094,10.0362412 51.7328859,10.3877049 51.1879195,11.1296838 C50.642953,11.8326112 50.3704698,12.8479508 50.3704698,14.1366511 C50.3704698,15.2300937 50.642953,16.0892272 51.1489933,16.753103 C51.6939597,17.4169789 52.3946309,17.7684426 53.2899329,17.7684426 C54.1852349,17.7684426 54.885906,17.4560304 55.4697987,16.8312061 C56.0147651,16.1673302 56.2872483,15.3862998 56.2872483,14.3709602 L56.2872483,14.3709602 Z" id="Shape"></path>
            </g>
        </g>
    </g>
</svg>